<?xml version="1.0" encoding="UTF-8"?>
<svg version="1.1" xmlns="http://www.w3.org/2000/svg" width="500" height="500">
<path d="M0 0 C23.4673655 22.21688421 36.16565231 54.47256096 37.12304688 86.47412109 C37.31971255 120.39192611 23.07358098 152.43548524 -0.57421875 176.41796875 C-19.8381793 195.15219585 -43.98476748 205.72372291 -70.30078125 209.95703125 C-71.11675781 210.08851563 -71.93273437 210.22 -72.7734375 210.35546875 C-102.73042027 214.37872959 -135.34678113 205.16712093 -159.30078125 186.95703125 C-186.5099178 165.52448392 -203.45641626 137.54159634 -208.67578125 103.14453125 C-212.0569612 71.00589293 -203.83978074 38.33973684 -183.671875 12.7890625 C-161.34906765 -13.87326918 -132.24111658 -31.35311642 -97.30078125 -34.66796875 C-59.98681346 -37.29235267 -27.78147093 -24.66843684 0 0 Z M-157.828125 15.4921875 C-177.23404571 34.83679408 -187.96846756 60.36296051 -188.32373047 87.83447266 C-188.06208245 112.03413122 -179.78794774 134.3931155 -164.30078125 152.95703125 C-163.12708984 154.37628906 -163.12708984 154.37628906 -161.9296875 155.82421875 C-145.94194549 174.29325832 -123.44691324 185.83326651 -99.30078125 188.95703125 C-95.23322354 189.2362333 -91.18952645 189.29168648 -87.11328125 189.26953125 C-86.01830322 189.2638916 -84.9233252 189.25825195 -83.79516602 189.25244141 C-55.76239685 188.83536699 -31.38056272 177.42654193 -11.85107422 157.47607422 C8.57653417 135.64721509 15.56030742 108.08478056 14.82666016 78.87841797 C13.69895025 53.02750456 0.28047488 29.35783111 -18.30078125 11.95703125 C-58.58078946 -24.66115803 -119.07340786 -20.43730462 -157.828125 15.4921875 Z " fill="#FDDE5D" transform="translate(336.30078125,162.04296875)"/>
<path d="M0 0 C12.35557498 9.7928825 21.64053193 24.05873894 23.73925781 39.86914062 C25.4323814 57.48151817 21.23025915 73.40084975 10.29394531 87.38085938 C-0.57428996 100.07005117 -15.07642924 107.67887284 -31.80761719 109.03320312 C-48.2557305 109.60419026 -63.4559489 104.2043644 -75.98339844 93.52929688 C-84.68772263 85.1641022 -90.037417 76.26815924 -93.67089844 64.77929688 C-93.91710937 64.00972656 -94.16332031 63.24015625 -94.41699219 62.44726562 C-98.47472437 47.36369565 -94.79002762 31.21086199 -87.55761719 17.69335938 C-77.90515058 2.7849948 -64.28114447 -5.97023765 -47.23339844 -10.53320312 C-30.81135266 -13.65549336 -13.50424095 -9.86575172 0 0 Z " fill="#FEDE59" transform="translate(285.6708984375,201.220703125)"/>
<path d="M0 0 C0.33 0 0.66 0 1 0 C1.41493789 6.30186916 -0.09020126 11.46292691 -2 17.4375 C-2.42925781 18.82098633 -2.42925781 18.82098633 -2.8671875 20.23242188 C-3.56939155 22.49117822 -4.28047889 24.74671247 -5 27 C-5.33 27 -5.66 27 -6 27 C-6 24.03 -6 21.06 -6 18 C-5.34 17.67 -4.68 17.34 -4 17 C-3.3867314 14.32391885 -2.87668845 11.70484315 -2.4375 9 C-1.11687307 1.11687307 -1.11687307 1.11687307 0 0 Z " fill="#F8DF7B" transform="translate(370,267)"/>
<path d="M0 0 C3.73487777 0.4979837 5.81237635 0.87491756 9 3 C10.99541868 3.68025637 12.99617991 4.34490497 15 5 C21.78310214 7.56620429 21.78310214 7.56620429 23 10 C14.88406495 7.91147495 7.52943541 4.64670147 0 1 C0 0.67 0 0.34 0 0 Z " fill="#F5E176" transform="translate(191,357)"/>
<path d="M0 0 C1 3 1 3 -0.43359375 6.13671875 C-1.09135973 7.3260128 -1.75977815 8.50946371 -2.4375 9.6875 C-2.77587891 10.29400391 -3.11425781 10.90050781 -3.46289062 11.52539062 C-4.29957915 13.0220025 -5.14862831 14.51169189 -6 16 C-6.66 15.34 -7.32 14.68 -8 14 C-8 12.68 -8 11.36 -8 10 C-7.34 9.67 -6.68 9.34 -6 9 C-5.67 8.34 -5.34 7.68 -5 7 C-4.34 7 -3.68 7 -3 7 C-3 6.01 -3 5.02 -3 4 C-2.34 4 -1.68 4 -1 4 C-0.67 2.68 -0.34 1.36 0 0 Z " fill="#F7DD6E" transform="translate(362,296)"/>
<path d="M0 0 C2.60590351 0.44981073 5.20940531 0.90944222 7.8125 1.375 C8.55048828 1.50132812 9.28847656 1.62765625 10.04882812 1.7578125 C13.60594646 2.40163482 15.95494084 2.96996056 19 5 C17.87980469 4.9278125 16.75960938 4.855625 15.60546875 4.78125 C14.13281566 4.68745044 12.66015923 4.59370317 11.1875 4.5 C10.44951172 4.45230469 9.71152344 4.40460938 8.95117188 4.35546875 C5.96175412 4.16609387 2.99625426 4 0 4 C0 2.68 0 1.36 0 0 Z " fill="#F8E07B" transform="translate(266,128)"/>
<path d="M0 0 C0.66 0.33 1.32 0.66 2 1 C-3.5 6 -3.5 6 -8 6 C-8.33 6.99 -8.66 7.98 -9 9 C-9.99 9.66 -10.98 10.32 -12 11 C-12.99 10.67 -13.98 10.34 -15 10 C-10.19713447 6.25750738 -5.4581904 2.7290952 0 0 Z " fill="#F4E075" transform="translate(191,142)"/>
<path d="M0 0 C4.13621084 3.3810038 7.81316569 6.66590534 11 11 C8.5625 10.625 8.5625 10.625 6 10 C5.67 9.34 5.34 8.68 5 8 C4.01 7.67 3.02 7.34 2 7 C0.8125 3.4375 0.8125 3.4375 0 0 Z " fill="#F6DF7B" transform="translate(330,157)"/>
<path d="M0 0 C-2.59947787 2.59947787 -4.92738453 3.0684435 -8.4375 4.125 C-9.59121094 4.47820312 -10.74492187 4.83140625 -11.93359375 5.1953125 C-15 6 -15 6 -18 6 C-18 5.34 -18 4.68 -18 4 C-16.4221875 3.566875 -16.4221875 3.566875 -14.8125 3.125 C-11.15925781 2.13431205 -11.15925781 2.13431205 -8.4375 0.875 C-5.51747576 -0.17321383 -3.07899299 -0.14320898 0 0 Z " fill="#F8DD70" transform="translate(296,363)"/>
<path d="M0 0 C1.70884005 1.62339805 3.37446717 3.29319053 5 5 C5 5.66 5 6.32 5 7 C3.68 7.33 2.36 7.66 1 8 C0.67 7.34 0.34 6.68 0 6 C-0.66 6 -1.32 6 -2 6 C-2 4.68 -2 3.36 -2 2 C-1.34 2 -0.68 2 0 2 C0 1.34 0 0.68 0 0 Z " fill="#FADE6D" transform="translate(347,176)"/>
<path d="M0 0 C1.81612488 0.95144598 3.62781081 1.91136933 5.4375 2.875 C6.44683594 3.40867188 7.45617187 3.94234375 8.49609375 4.4921875 C11 6 11 6 12 8 C10.35 7.67 8.7 7.34 7 7 C6.67 7.66 6.34 8.32 6 9 C5.34 8.01 4.68 7.02 4 6 C4.33 5.34 4.66 4.68 5 4 C3.35 3.67 1.7 3.34 0 3 C0 2.01 0 1.02 0 0 Z " fill="#F7DE6A" transform="translate(308,142)"/>
<path d="M0 0 C2.9719385 1.12451727 5.33440687 2.22293791 8 4 C8.66 4 9.32 4 10 4 C10.33 5.98 10.66 7.96 11 10 C9.72390677 9.09066991 8.45434447 8.17217147 7.1875 7.25 C6.47980469 6.73953125 5.77210938 6.2290625 5.04296875 5.703125 C2.97022309 3.97517642 1.52624146 2.21473524 0 0 Z " fill="#F7DF75" transform="translate(206,290)"/>
<path d="M0 0 C3.33370932 3.65120544 4.97807612 8.21633909 6 13 C5.67 13.99 5.34 14.98 5 16 C1.91532502 10.60540561 0.44356295 6.20988129 0 0 Z " fill="#F5DE74" transform="translate(361,199)"/>
<path d="M0 0 C0.99 0.495 0.99 0.495 2 1 C2 1.66 2 2.32 2 3 C2.99 3 3.98 3 5 3 C4.67 5.97 4.34 8.94 4 12 C3.67 12 3.34 12 3 12 C2.67 10.02 2.34 8.04 2 6 C1.01 6.495 1.01 6.495 0 7 C0 4.69 0 2.38 0 0 Z " fill="#FADC68" transform="translate(146,224)"/>
<path d="M0 0 C0.66 0 1.32 0 2 0 C0.25 5.75 0.25 5.75 -2 8 C-2.99 7.01 -3.98 6.02 -5 5 C-4.67 4.01 -4.34 3.02 -4 2 C-2.68 2 -1.36 2 0 2 C0 1.34 0 0.68 0 0 Z " fill="#F8DD69" transform="translate(303,272)"/>
<path d="M0 0 C1.32 0.33 2.64 0.66 4 1 C1.69 3.31 -0.62 5.62 -3 8 C-3.33 6.68 -3.66 5.36 -4 4 C-3.01 4 -2.02 4 -1 4 C-0.67 2.68 -0.34 1.36 0 0 Z " fill="#F9DF72" transform="translate(292,288)"/>
<path d="M0 0 C1.65 0 3.3 0 5 0 C6.06775224 1.96466413 7.06553465 3.96855359 8 6 C7.67 6.66 7.34 7.32 7 8 C5.83035398 6.8572081 4.66435444 5.71068285 3.5 4.5625 C2.8503125 3.92441406 2.200625 3.28632813 1.53125 2.62890625 C0 1 0 1 0 0 Z " fill="#F6E07B" transform="translate(159,332)"/>
<path d="M0 0 C0.66 0.33 1.32 0.66 2 1 C1.67 1.66 1.34 2.32 1 3 C1.99 2.67 2.98 2.34 4 2 C4.66 3.32 5.32 4.64 6 6 C2.00095031 6 0.19799578 4.27413033 -3 2 C-2.01 1.34 -1.02 0.68 0 0 Z " fill="#FADF70" transform="translate(306,162)"/>
<path d="M0 0 C0 2.33333333 0 4.66666667 0 7 C-1.98 7.99 -1.98 7.99 -4 9 C-4.66 8.34 -5.32 7.68 -6 7 C-4.02 4.69 -2.04 2.38 0 0 Z " fill="#F8E47E" transform="translate(326,316)"/>
<path d="M0 0 C1.98 0.66 3.96 1.32 6 2 C5.01 2.495 5.01 2.495 4 3 C4.33 4.65 4.66 6.3 5 8 C2.20127563 5.47211993 0.54226981 3.79588866 0 0 Z " fill="#F5DF69" transform="translate(145,312)"/>
<path d="M0 0 C0.33 0.99 0.66 1.98 1 3 C2.65 3 4.3 3 6 3 C3.60490662 5.89932357 1.68754757 6.50168276 -2 7 C-1.34 6.01 -0.68 5.02 0 4 C-0.33 3.34 -0.66 2.68 -1 2 C-0.67 1.34 -0.34 0.68 0 0 Z " fill="#F9E37E" transform="translate(274,298)"/>
<path d="M0 0 C2.31 0 4.62 0 7 0 C5.02 2.97 5.02 2.97 3 6 C0.8614515 3.8614515 0.57344937 2.86724686 0 0 Z " fill="#F7E06F" transform="translate(171,178)"/>
<path d="M0 0 C1.80330533 3.60661066 2.46599103 6.08393425 3 10 C2.01 10.33 1.02 10.66 0 11 C0 7.37 0 3.74 0 0 Z " fill="#F7DD75" transform="translate(306,231)"/>
<path d="M0 0 C0.6875 1.75 0.6875 1.75 1 4 C-0.375 6.0625 -0.375 6.0625 -2 8 C-2.33 8.99 -2.66 9.98 -3 11 C-3.66 11 -4.32 11 -5 11 C-3.77472971 6.94718288 -2.30119506 3.55639236 0 0 Z " fill="#F4E071" transform="translate(144,188)"/>
<path d="M0 0 C1.37562854 1.28965176 2.70766393 2.62689293 4 4 C4 4.66 4 5.32 4 6 C2.35 6.33 0.7 6.66 -1 7 C-0.67 4.69 -0.34 2.38 0 0 Z " fill="#FBE179" transform="translate(163,303)"/>
<path d="M0 0 C2 1 4 2 6 3 C6.625 6.0625 6.625 6.0625 7 9 C4.03595495 6.19195732 1.55500981 3.81684226 0 0 Z " fill="#F9E470" transform="translate(199,281)"/>
<path d="M0 0 C0.33 0 0.66 0 1 0 C1.625 2.875 1.625 2.875 2 6 C1.34 6.66 0.68 7.32 0 8 C-0.6425235 10.06874034 -0.6425235 10.06874034 -1 12 C-1.66 12 -2.32 12 -3 12 C-2.01 8.04 -1.02 4.08 0 0 Z " fill="#F8DC6F" transform="translate(348,274)"/>
<path d="M0 0 C2.31 1.98 4.62 3.96 7 6 C6.67 6.66 6.34 7.32 6 8 C3.5625 7.375 3.5625 7.375 1 6 C0.1875 2.875 0.1875 2.875 0 0 Z " fill="#F5E077" transform="translate(290,206)"/>
<path d="M0 0 C0.99 0 1.98 0 3 0 C2.67 1.32 2.34 2.64 2 4 C0.68 4.33 -0.64 4.66 -2 5 C-1.125 1.125 -1.125 1.125 0 0 Z " fill="#F9E068" transform="translate(199,158)"/>
<path d="M0 0 C0.99 0 1.98 0 3 0 C1.84826645 2.46800047 0.95216435 4.04783565 -1 6 C-1.625 4.125 -1.625 4.125 -2 2 C-1.34 1.34 -0.68 0.68 0 0 Z " fill="#FADF72" transform="translate(166,188)"/>
</svg>
