<?xml version="1.0" encoding="UTF-8"?>
<svg version="1.1" xmlns="http://www.w3.org/2000/svg" width="500" height="500">
<path d="M0 0 C165 0 330 0 500 0 C500 165 500 330 500 500 C335 500 170 500 0 500 C0 335 0 170 0 0 Z " fill="#FEFEFE" transform="translate(0,0)"/>
<path d="M0 0 C1.05832031 0.763125 2.11664063 1.52625 3.20703125 2.3125 C29.71814771 21.8580113 46.4228517 49.60476677 52 82 C56.35095478 111.9969599 50.08262401 145.23891226 32 170 C29.4339374 173.42492955 26.76439192 176.73346198 24 180 C23.31164062 180.82371094 22.62328125 181.64742187 21.9140625 182.49609375 C1.85308012 205.70744701 -27.22691397 220.16107982 -57.72558594 222.84326172 C-91.46321292 225.16824632 -122.09160774 215.92564417 -148 194 C-149.23556641 192.96746094 -149.23556641 192.96746094 -150.49609375 191.9140625 C-170.20116761 174.88346825 -184.36933208 150.72980144 -189 125 C-189.20238281 123.89269531 -189.40476563 122.78539062 -189.61328125 121.64453125 C-194.76167963 88.96796195 -187.76758379 56.54405761 -168.3203125 29.6796875 C-151.01992183 6.79852564 -128.70044597 -9.37671651 -101 -17 C-100.02546875 -17.3403125 -99.0509375 -17.680625 -98.046875 -18.03125 C-66.80840931 -27.96348012 -26.11501827 -18.90956068 0 0 Z " fill="#FDFDFD" transform="translate(319,149)"/>
<path d="M0 0 C1.05832031 0.763125 2.11664063 1.52625 3.20703125 2.3125 C29.71814771 21.8580113 46.4228517 49.60476677 52 82 C56.35095478 111.9969599 50.08262401 145.23891226 32 170 C29.4339374 173.42492955 26.76439192 176.73346198 24 180 C23.31164062 180.82371094 22.62328125 181.64742187 21.9140625 182.49609375 C1.85308012 205.70744701 -27.22691397 220.16107982 -57.72558594 222.84326172 C-91.46321292 225.16824632 -122.09160774 215.92564417 -148 194 C-149.23556641 192.96746094 -149.23556641 192.96746094 -150.49609375 191.9140625 C-170.20116761 174.88346825 -184.36933208 150.72980144 -189 125 C-189.20238281 123.89269531 -189.40476563 122.78539062 -189.61328125 121.64453125 C-194.76167963 88.96796195 -187.76758379 56.54405761 -168.3203125 29.6796875 C-151.01992183 6.79852564 -128.70044597 -9.37671651 -101 -17 C-100.02546875 -17.3403125 -99.0509375 -17.680625 -98.046875 -18.03125 C-66.80840931 -27.96348012 -26.11501827 -18.90956068 0 0 Z M-139 26 C-139.68578125 26.58265625 -140.3715625 27.1653125 -141.078125 27.765625 C-157.30878486 42.78277759 -169.86239613 68.03562671 -171.12084961 90.12084961 C-172.11329397 118.96063488 -165.73831327 144.47538838 -147 167 C-146.34386719 167.80308594 -145.68773437 168.60617187 -145.01171875 169.43359375 C-129.88687397 187.15758919 -109.5473547 197.35854187 -87 202 C-86.20062012 202.17668213 -85.40124023 202.35336426 -84.57763672 202.53540039 C-64.54492119 206.14614652 -42.05624268 202.14112981 -24 193 C-22.89785156 192.44828125 -21.79570312 191.8965625 -20.66015625 191.328125 C3.08145824 178.8876379 18.9578515 157.91551265 28 133 C28.31839844 132.16597656 28.63679687 131.33195313 28.96484375 130.47265625 C37.42084841 107.20812601 33.88138184 80.12275351 24.06835938 57.88916016 C20.07381031 49.45057357 15.17888691 42.0161025 9 35 C7.98679687 33.77216797 7.98679687 33.77216797 6.953125 32.51953125 C-9.19617793 13.51168382 -33.02927071 1.54000559 -57.80859375 -0.71484375 C-88.77633863 -2.99977107 -115.37579133 5.80313766 -139 26 Z " fill="#17212A" transform="translate(319,149)"/>
<path d="M0 0 C11.58056694 9.82280232 19.7701744 23.24163645 21.6875 38.484375 C23.04009987 56.99567041 18.62734664 72.3573896 6.4375 86.671875 C-3.8299848 97.62614809 -17.376831 105.03492026 -32.48828125 105.703125 C-49.00273941 106.16674989 -63.90637574 102.18962436 -76.6875 91.234375 C-87.60172757 80.64273544 -95.93313095 66.67608034 -96.61328125 51.15234375 C-96.84512014 33.50141684 -92.33008429 17.70761031 -79.7578125 4.73046875 C-57.30130565 -15.89651438 -24.68030234 -19.5730149 0 0 Z " fill="#151F28" transform="translate(287.3125,203.515625)"/>
</svg>
